/* XPM */
static char *result[] = {
/* columns rows colors chars-per-pixel */
"32 32 41 1 ",
"  c black",
". c #1E1E1E",
"X c gray31",
"o c gray34",
"O c gray82",
"+ c #E6E6E6",
"@ c #D0D0D0",
"# c #F6CDCD",
"$ c #ED9595",
"% c #D91E1E",
"& c #D91F1F",
"* c #DA2323",
"= c #DC3333",
"- c #E97E7E",
"; c #E45F5F",
": c #F5C9C9",
"> c #E45E5E",
", c #FBECEC",
"< c #E97D7D",
"1 c #FEFEFE",
"2 c #F3BDBD",
"3 c #E46262",
"4 c #DE3C3C",
"5 c #FCF0F0",
"6 c #F8DCDC",
"7 c #E87777",
"8 c #F2B7B7",
"9 c #E77070",
"0 c #DE3D3D",
"q c #E77171",
"w c #F3BCBC",
"e c #FDFAFA",
"r c #F9E3E3",
"t c #E56969",
"y c #FAE3E3",
"u c #FCF4F4",
"i c #F3B9B9",
"p c #E87676",
"a c #DE3B3B",
"s c #F9E2E2",
"d c #E56868",
/* pixels */
"                                ",
" .XooooooooooooooooooooooooooX. ",
" XO++++++++++++++++++++++++++@X ",
" o+#$$$$$$$$$$$$$$$$$$$$$$$$#+o ",
" o+$%%&**&%%%%%%%%%%%%&**&%%$+o ",
" o+$%%=--=%%%%%%%%%%%%=--=%%$+o ",
" o+$&=;::;=&%%%%%%%%&=;::>=&$+o ",
" o+$*-:,,:-*%%%%%%%%*-:,,:<*$+o ",
" o+$*-:,11234%%%%%%43211,:<*$+o ",
" o+$&=;:11567%%%%%%76511:>=&$+o ",
" o+$%%=-2511890%%0q8115w<=%%$+o ",
" o+$%%&*3611ert%%tye1163*&%%$+o ",
" o+$%%%%478e1ui$$iu1e8pa%%%%$+o ",
" o+$%%%%%%9ru111111us9%%%%%%$+o ",
" o+$%%%%%%0ti111111id0%%%%%%$+o ",
" o+$%%%%%%%%$111111$%%%%%%%%$+o ",
" o+$%%%%%%%%$111111$%%%%%%%%$+o ",
" o+$%%%%%%0ti111111it0%%%%%%$+o ",
" o+$%%%%%%qyu111111ur9%%%%%%$+o ",
" o+$%%%%478e1ui$$iu1e87a%%%%$+o ",
" o+$%%&*3611esd%%tre1163*&%%$+o ",
" o+$%%=-2511890%%0981152-=%%$+o ",
" o+$&=;:1156p%%%%%%76511:;=&$+o ",
" o+$*-:,11w3a%%%%%%a3211,:-*$+o ",
" o+$*-:,,:<*%%%%%%%%*-:,,:<*$+o ",
" o+$&=>::>=&%%%%%%%%&=;::>=&$+o ",
" o+$%%=<<=%%%%%%%%%%%%=-<=%%$+o ",
" o+$%%&**&%%%%%%%%%%%%&**&%%$+o ",
" o+#$$$$$$$$$$$$$$$$$$$$$$$$#+o ",
" X@++++++++++++++++++++++++++@X ",
" .XooooooooooooooooooooooooooX. ",
"                                "
};
