/* XPM */
static char *_242a1ef8d5a4dd9f6f827f675ee644d0QUnVqJ0wnedAFI1[] = {
/* columns rows colors chars-per-pixel */
"32 32 10 1 ",
"  c black",
". c #18130E",
"X c #18140E",
"o c #2E2F2F",
"O c #2E3030",
"+ c #544B57",
"@ c #544C57",
"# c #544B58",
"$ c #544C58",
"% c #748C9B",
/* pixels */
"##X o%++++++++. o%++++++. o%$$$$",
"oo# %ooooooooo+ %ooooooo+ %oOOOO",
"ooo #oooooooooo %ooooooo+ @oOOOO",
"ooo #oooooooooo +oooooooo @oOOOO",
"ooX #ooooooooo. +ooooooo. @oOOOO",
"ooX #ooooooooo. +ooooooo. @oOOOO",
"XX  X+oo.o....  .+oo.o..  .@OO.O",
"                                ",
"#####++. o%++++++++. o%+++@@$. O",
"ooooooo+ %ooooooooo+ %ooooooO$ %",
"oooooooo +oooooooooo +ooooooOO $",
"ooooooo. +ooooooooo. +ooooooO. $",
"ooooooo. +ooooooooo. +ooooooO. $",
"oXoXX..  .+oo.o....  .+oo.o..  .",
"                                ",
"##X o%++++++++. o%+++++. o%@$$$$",
"oo# %ooooooooo+ %oooooo+ %ooOOOO",
"ooo #oooooooooo +ooooooo +ooOOOO",
"ooX #oooooooooo +ooooooo +ooOOOO",
"ooX #ooooooooo. +oooooo. +ooOOOO",
"ooX #ooooooooo. +oooooo. +ooOOOO",
"ooX #ooooooooo. +oooooo. +ooOOOO",
"XX  X+oo.o....  .+oo...  .@oO...",
"                                ",
"#####++. o%++++++++. o%+++@@$. O",
"ooooooo+ %ooooooooo+ %ooooooO$ %",
"oooooooo +oooooooooo +ooooooOO $",
"ooooooo. +ooooooooo. +ooooooO. $",
"ooooooo. +ooooooooo. +ooooooO. $",
"ooooooo. +ooooooooo. +ooooooO. $",
"oXoXX..  .+oo.o....  .+oo.o..  .",
"                                "
};
