/* XPM */
static char *result[] = {
/* columns rows colors chars-per-pixel */
"32 32 161 2 ",
"   c black",
".  c #060605",
"X  c #070706",
"o  c #0A0A08",
"O  c #0B0B09",
"+  c #0E0E0B",
"@  c #0F0F0C",
"#  c #141410",
"$  c #151510",
"%  c #161611",
"&  c #1A1A14",
"*  c #1B1B15",
"=  c #1C1C16",
"-  c #1D1D16",
";  c #1D1D17",
":  c #1E1E17",
">  c #202018",
",  c #202019",
"<  c #212119",
"1  c #25251C",
"2  c #27271E",
"3  c #28281F",
"4  c #2B2B21",
"5  c #2C2C22",
"6  c #2D2D23",
"7  c #2F2F24",
"8  c #303025",
"9  c #313125",
"0  c #323226",
"q  c #3D3D2F",
"w  c #404000",
"e  c #424202",
"r  c #424203",
"t  c #454506",
"y  c #484808",
"u  c #4C4C0D",
"i  c #4D4D0D",
"p  c #4E4E0F",
"a  c #515111",
"s  c #515112",
"d  c #525213",
"f  c #535313",
"g  c #555516",
"h  c #565616",
"j  c #585819",
"k  c #59591A",
"l  c #5A5A1A",
"z  c #5B5B1C",
"x  c #5D5D1D",
"c  c #5E5E1F",
"v  c #5F5F1F",
"b  c #5F5F20",
"n  c #584D37",
"m  c #594F38",
"M  c #51513E",
"N  c #5F543C",
"B  c #61553D",
"V  c #606020",
"C  c #636324",
"Z  c #827738",
"A  c #837839",
"S  c #857B3C",
"D  c #867B3C",
"F  c #B26F3B",
"G  c #B3703C",
"H  c #BD7838",
"J  c #BF7C3C",
"K  c #CE4300",
"L  c #D14D0B",
"P  c #D2500E",
"I  c #D35614",
"U  c #D35816",
"Y  c #D55B19",
"T  c #D55E1C",
"R  c #D6601F",
"E  c #D66120",
"W  c #D66220",
"Q  c #D66321",
"!  c #D66322",
"~  c #D66422",
"^  c #D66423",
"/  c #D66523",
"(  c #D76624",
")  c #C07D3C",
"_  c #C47F3E",
"`  c #DE7F3E",
"'  c #E17E2A",
"]  c #E17F2B",
"[  c #846340",
"{  c #876641",
"}  c #876642",
"|  c #896843",
" . c #8A6844",
".. c #8B6A44",
"X. c #C17740",
"o. c #808000",
"O. c #858508",
"+. c #89890E",
"@. c #8B8B11",
"#. c #8C8C13",
"$. c #8D8D15",
"%. c #8F8F17",
"&. c #8F8F18",
"*. c #909019",
"=. c #90901A",
"-. c #92921C",
";. c #93931D",
":. c #93931E",
">. c #AA9F37",
",. c #AAA038",
"<. c #CD8A3C",
"1. c #EB9530",
"2. c #EB9732",
"3. c #EB9832",
"4. c #F5B039",
"5. c #F5B139",
"6. c #C0C000",
"7. c #C7C718",
"8. c #C8C819",
"9. c #C8C81A",
"0. c #FFC93F",
"q. c #A28041",
"w. c #A28142",
"e. c #A38142",
"r. c #A38242",
"t. c #A48243",
"y. c #A58444",
"u. c #A98647",
"i. c #BD9C41",
"p. c #BE9C42",
"a. c #BE9D43",
"s. c #AE8355",
"d. c #E18843",
"f. c #E08847",
"g. c #E08848",
"h. c #E08949",
"j. c #E18949",
"k. c #E18A4B",
"l. c #E18C4C",
"z. c #E18D4C",
"x. c #D8B741",
"c. c #D8B742",
"v. c #D9B742",
"b. c #EBA14A",
"n. c #EBA962",
"m. c #E9AC6D",
"M. c #EAB072",
"N. c #EBB172",
"B. c #EBB173",
"V. c #EBB273",
"C. c #EBB274",
"Z. c #EBB374",
"A. c #FFC940",
"S. c #FFD258",
"D. c #F5C268",
"F. c #F5C269",
"G. c #FFDB70",
"H. c #F5CB81",
"J. c #FFE488",
"K. c #FFEC9F",
"L. c None",
/* pixels */
"L.L.L.L.L.L.L.L.L.L.L.L.L.L.K K L.L.L.L.L.L.L.L.L.L.L.L.L.L.L.L.",
"L.L.L.L.L.L.L.L.L.L.L.L.L.L.L P L.L.L.L.L.L.L.L.L.L.L.L.L.L.L.L.",
"L.L.L.L.L.L.L.L.L.L.L.L.L.` I U m.L.L.L.L.L.L.L.L.L.L.L.L.L.L.L.",
"L.L.L.L.L.L.L.L.L.L.L.L.L.Y T R g.L.L.L.L.L.L.L.L.L.L.L.L.L.L.L.",
"L.L.L.L.L.L.L.L.L.L.L.L.f.E 1.~ ! L.L.L.L.L.L.L.L.L.L.L.L.L.L.L.",
"L.L.L.L.L.L.L.L.L.L.L.h.Q ' 0.] / l.L.L.L.L.L.L.L.L.L.L.L.L.L.L.",
"L.L.L.L.L.L.L.L.L.L.L./ / 4.A.5.( ( l.L.L.L.L.L.L.L.L.L.L.L.L.L.",
"L.L.L.L.L.L.L.l.C.L.l.( 4.A.A.A.5.( ( L.L.L.L.L.L.L.L.L.L.L.L.L.",
"L.L.L.L.L.L.l.( ( L.( ( A.A.G.A.A.] ( z.L.L.L.L.L.L.L.L.L.L.L.L.",
"L.L.L.L.L.l.( ( ( Z.( 3.A.J.K.J.A.5.( ( M L.l./ V.L.L.L.L.L.L.L.",
"L.L.L.L.k./ ( ( ( ( ( 3.A.K.K.K.J.A.( ( _ ( ( ( / L.L.L.L.L.L.L.",
"L.L.L.B./ ( ( 5.( ( ( ] S.K.K.K.K.A.( ( ( ( ( ( / s.L.L.L.L.L.L.",
"L.L.L.! ( ( 5.A.5.( ( ( b.K.K.K.K.F.( ( ( ( 3.( ( / q L.L.L.L.L.",
"L.L.N./ ( 5.A.A.A.3.( ( ( n.n.n.n.( ( ( ( 5.A.( ( ( u.8 9 L.L.L.",
"L.L.B./ 3.A.S.S.A.A.( ( ( ( ( ( ( ( ( ( 3.A.A.5.( ( J c l > L.L.",
"L.L.B./ A.A.K.J.A.5.( ( ) y.y.y...G ( ( ( A.A.A.3.( / V j > L.L.",
"L.L.B./ A.G.K.K.F.( ( ( ..C C 7 C ) ( ( ( F.K.J.A.( / w.j < L.L.",
"L.L.N./ 2.K.K.H.( ( ( ( G 7 7 C D ( ] ] ( d.K.K.G.3./ w., * L.L.",
"L.L.M.! ( H.H.( ( ( ] ( ( N C D ( ( 5.5.( ( H.K.G.2.^ q.- i   L.",
"L.L.L.j./ ( ( ( ( ] A.] ( ( N ) ( ] A.A.] ( ( H.D./ W [ s t w   ",
"L.L.L.L.X./ ( ( ] A.A.A.] ( <.( ] A.A.A.A.] ( ( / ~ H g u e w   ",
"L.L.L.0 6  .( ] A.A.A.A.5.( ( ( 3.A.S.S.A.5.( ( S b k p r w w   ",
"L.L.X , ;.a.( 5.A.J.G.A.A.] ( ( A.S.K.K.S.A.] ( t.x h r w w w   ",
"L.L.  #.-.a./ A.S.K.K.S.A.3.( ( A.G.K.K.K.S.3./ t.z f w w w   L.",
"L.L.  @.9.v./ 5.J.K.K.K.S.3.( ( 5.J.K.K.K.G.3./ r.l s w   L.L.L.",
"L.L.  +.7.x./ ] K.K.K.K.J.] ( ( ] H.K.K.K.K.] / e.k d   L.L.L.L.",
"L.L.  O $.>.! / d.n.n.n.d.( ( ( ( d.n.n.n.d.( / Z l - L.L.L.L.L.",
"L.L.w . # , Z ! / / / / / / F | / / / / / / ~ A v 2 L.L.L.L.L.L.",
"L.L.  o.O.% j n i.p.v.p.} m 2 :.,.c.v.p.p.{ B 5 0 L.L.L.L.L.L.L.",
"L.  o.o.o.O a * &.=.9.9.*.: = = %.8.9.=.=.1 4 L.L.L.L.L.L.L.L.L.",
"L.  o.6.o.  t + # % @.@.$ @ y o @ $ @.& ; 3 L.L.L.L.L.L.L.L.L.L.",
"L.        w w w           w   w w       L.L.L.L.L.L.L.L.L.L.L.L."
};
