/* XPM */
static char *result[] = {
/* columns rows colors chars-per-pixel */
"32 32 134 2 ",
"   c black",
".  c #060605",
"X  c #0A0A08",
"o  c #0B0B09",
"O  c #0E0E0B",
"+  c #0F0F0C",
"@  c #12120E",
"#  c #141410",
"$  c #161611",
"%  c #171711",
"&  c #171712",
"*  c #181813",
"=  c #1B1B15",
"-  c #1C1C16",
";  c #1D1D16",
":  c #1E1E17",
">  c #202018",
",  c #202019",
"<  c #212119",
"1  c #23231B",
"2  c #26261D",
"3  c #27271E",
"4  c #292920",
"5  c #2B2B21",
"6  c #2F2F24",
"7  c #37372A",
"8  c #3C3C2E",
"9  c #404000",
"0  c #424202",
"q  c #424203",
"w  c #454506",
"e  c #464607",
"r  c #4C4C0D",
"t  c #4E4E0F",
"y  c #505010",
"u  c #515111",
"i  c #515112",
"p  c #535313",
"a  c #555516",
"s  c #565616",
"d  c #575717",
"f  c #575718",
"g  c #585819",
"h  c #59591A",
"j  c #5A5A1A",
"k  c #5A5A1B",
"l  c #5B5B1C",
"z  c #5D5D1D",
"x  c #584D37",
"c  c #594F38",
"v  c #5E533C",
"b  c #5F543C",
"n  c #636324",
"m  c #807637",
"M  c #817738",
"N  c #827738",
"B  c #867B3C",
"V  c #B26F3B",
"C  c #B3703C",
"Z  c #BE793A",
"A  c #BF7A3A",
"S  c #BF7B3B",
"D  c #D66321",
"F  c #D66322",
"G  c #D66422",
"H  c #D66423",
"J  c #D66523",
"K  c #D76624",
"L  c #C07D3C",
"P  c #E17F2B",
"I  c #876641",
"U  c #876642",
"Y  c #886742",
"T  c #896843",
"R  c #8B6A44",
"E  c #936F48",
"W  c #987249",
"Q  c #808000",
"!  c #858509",
"~  c #87870C",
"^  c #89890E",
"/  c #8A8A10",
"(  c #8B8B11",
")  c #8E8E16",
"_  c #8F8F17",
"`  c #8F8F18",
"'  c #909019",
"]  c #90901A",
"[  c #92921C",
"{  c #AAA038",
"}  c #EB9732",
"|  c #EB9832",
" . c #F5B139",
".. c #C0C000",
"X. c #C5C510",
"o. c #C5C511",
"O. c #C6C615",
"+. c #C7C718",
"@. c #C8C819",
"#. c #C8C81A",
"$. c #D3C837",
"%. c #A28041",
"&. c #A28142",
"*. c #A38142",
"=. c #A38242",
"-. c #A48243",
";. c #A58444",
":. c #BD9C42",
">. c #BE9C42",
",. c #BE9D42",
"<. c #BE9D43",
"1. c #E18843",
"2. c #E18A4A",
"3. c #E18B4A",
"4. c #E18A4B",
"5. c #E18B4B",
"6. c #E18C4C",
"7. c #E18D4C",
"8. c #D8B741",
"9. c #EBA962",
"0. c #EAB071",
"q. c #EAB072",
"w. c #EBB072",
"e. c #EBB172",
"r. c #EBB173",
"t. c #EBB273",
"y. c #EBB374",
"u. c #FFC940",
"i. c #FFD258",
"p. c #FFDB70",
"a. c #F5CB81",
"s. c #FFE488",
"d. c #FFEC9F",
"f. c None",
/* pixels */
"f.f.f.f.f.f.f.f.f.f.f.f.f.f.f.f.f.f.f.f.f.f.f.f.f.f.f.f.f.f.f.f.",
"f.f.f.f.f.f.f.f.f.f.f.f.f.f.f.f.f.f.f.f.f.f.f.f.f.f.f.f.f.f.f.f.",
"f.f.f.f.f.f.f.f.f.f.f.f.f.f.f.w.q.f.f.f.f.f.f.f.f.f.f.f.f.f.f.f.",
"f.f.f.f.f.f.f.f.f.f.f.f.f.r.F G F f.f.f.f.f.f.f.f.f.f.f.f.f.f.f.",
"f.f.f.f.f.f.f.0.f.f.f.f.3.J J K J 6.f.f.f.f.0.f.f.f.f.f.f.f.f.f.",
"f.f.f.f.f.f.f.D t.f.f.6.J K P K K K f.f.f.f.D w.f.f.f.f.f.f.f.f.",
"f.f.f.f.f.f.4.J 6.f.f.K K K  .P K K 6.f.f.6.J 2.f.f.f.f.f.f.f.f.",
"f.f.f.f.f.r.J K K f.y.K K  .u. .K K K f.y.K K J f.f.f.f.f.f.f.f.",
"f.f.f.f.f.H K K K y.7.K  .u.u.u. .K K y.K K K J t.f.f.f.f.f.f.f.",
"f.f.f.f.4.J | | K K K K u.u.p.p.u.P K K K | | K J f.f.f.f.f.f.f.",
"f.f.f.r.J K u.u.K K K | u.s.d.d.s. .K K K u.u.K J 4.f.f.f.f.f.f.",
"f.f.f.F K  .u.u. .K K P u.d.d.d.d.u.K K  .u.u. .K J r.f.f.f.f.f.",
"f.f.e.J } u.u.u.u.| K K  .d.d.d.d.| K | u.u.u.u.| K F f.f.f.f.f.",
"f.f.r.J  .u.s.s.u.u.K K K 9.9.9.9.K K |  .s.s.u.u.K J W 7 f.f.f.",
"f.f.r.J u.p.d.d.s. .K K L ;.;.;.;.L K K 1.d.d.s.u.| J &.l 3 f.f.",
"f.f.r.J u.p.d.d.a.K K K ;.n n n 6 R K K K a.d.d.p.| J &.g < f.f.",
"f.f.e.J } d.d.a.K K K K C n n 6 B K K K K 1.d.d.s.| J &.g > f.f.",
"f.f.f.F K 9.a.K K K P K K b 6 B K K K P K K a.d.a.K H %.; # f.f.",
"f.f.f.r.J K K K K P u.P K K B L K K P u.P K K K K J A k & e   f.",
"f.f.f.f.5.J K K P u.u.u.P K C K K P u.u.u.P K K J S 2 - r 0 9   ",
"f.f.f.f.8 E K P u.u.u.u. .K K K P u.u.u.u. .K K v 4 h t q 9 9   ",
"f.f.f.5 5 T K  .u.s.p.u.u.P K K  .u.s.p.u.u.P K -.z s q 9 9 9   ",
"f.f.f.; [ <.J u.i.d.d.i.u.| K K u.i.d.d.i.u.| J -.l p 9 9 9 9   ",
"f.f.  ( ] ,.J  .s.d.d.d.i.| K K  .s.d.d.d.i.| J =.j i 9 9 9   f.",
"f.f.  ^ +.8.J P d.d.d.d.s.P K K P d.d.d.d.s.P J *.h y 9   f.f.f.",
"f.f.  ! O.$.F J 1.9.9.9.1.K K K K 1.9.9.9.1.K J %.d y   f.f.f.f.",
"f.f.  . / ' c F J J J J J J V T J J J J J J G Z m a @ f.f.f.f.f.",
"f.f.9   X $ g x I Y >.>.U N 3 3 { :.>.>.>.I M j f ; f.f.f.f.f.f.",
"f.f.  Q Q o u = ` ] #.] , : - ) _ @.#.] ] , , > 1 f.f.f.f.f.f.f.",
"f.  Q Q Q   w O / ( o.o./ + X X ~ X.o.( ( * % f.f.f.f.f.f.f.f.f.",
"f.  Q ..Q   9       Q Q     9       Q     f.f.f.f.f.f.f.f.f.f.f.",
"f.        9 9 9           9   9 9       f.f.f.f.f.f.f.f.f.f.f.f."
};
