/* XPM */
static char *result[] = {
/* columns rows colors chars-per-pixel */
"32 32 134 2 ",
"   c black",
".  c #050504",
"X  c #080806",
"o  c #090907",
"O  c #0B0B09",
"+  c #0C0C09",
"@  c #0F0F0C",
"#  c #11110D",
"$  c #12120E",
"%  c #13130E",
"&  c #13130F",
"*  c #161611",
"=  c #171712",
"-  c #181813",
";  c #1A1A14",
":  c #1B1B14",
">  c #1B1B15",
",  c #1C1C15",
"<  c #202018",
"1  c #202019",
"2  c #22221A",
"3  c #23231B",
"4  c #24241C",
"5  c #26261D",
"6  c #2A2A20",
"7  c #2D2D23",
"8  c #323226",
"9  c #404000",
"0  c #424202",
"q  c #424203",
"w  c #444404",
"e  c #454506",
"r  c #4A4A0A",
"t  c #4B4B0C",
"y  c #4C4C0D",
"u  c #4D4D0D",
"i  c #4E4E0F",
"p  c #505010",
"a  c #515112",
"s  c #525213",
"d  c #535313",
"f  c #535314",
"g  c #545414",
"h  c #545415",
"j  c #555516",
"k  c #565616",
"l  c #565617",
"z  c #575718",
"x  c #5D5D1D",
"c  c #534834",
"v  c #544934",
"b  c #584D37",
"n  c #594E38",
"m  c #7A7031",
"M  c #7D7234",
"N  c #7E7435",
"B  c #815F3D",
"V  c #83613E",
"C  c #83613F",
"Z  c #84623F",
"A  c #817638",
"S  c #9E7C3D",
"D  c #9E7D3E",
"F  c #9F7D3E",
"G  c #9F7D3F",
"H  c #AF6937",
"J  c #A07E3F",
"K  c #A07F3F",
"L  c #BD7736",
"P  c #BD7737",
"I  c #D25412",
"U  c #D45917",
"Y  c #D45A19",
"T  c #D45B19",
"R  c #D45C1A",
"E  c #D55D1B",
"W  c #D55E1C",
"Q  c #D55E1D",
"!  c #D55F1D",
"~  c #DD7E3E",
"^  c #E07925",
"/  c #856340",
"(  c #866440",
")  c #946E46",
"_  c #A07F40",
"`  c #A17F40",
"'  c #808000",
"]  c #848407",
"[  c #868609",
"{  c #87870B",
"}  c #88880D",
"|  c #89890E",
" . c #8B8B12",
".. c #8C8C13",
"X. c #8D8D14",
"o. c #8D8D15",
"O. c #8E8E16",
"+. c #A59B31",
"@. c #A89E35",
"#. c #BB993F",
"$. c #BC9A3F",
"%. c #EA932C",
"&. c #E0823D",
"*. c #D7B53E",
"=. c #F5AD33",
"-. c #C0C000",
";. c #C4C40D",
":. c #C4C40E",
">. c #C5C510",
",. c #C6C613",
"<. c #C6C614",
"1. c #C6C615",
"2. c #FFC73A",
"3. c #DE8241",
"4. c #DF8343",
"5. c #DF8443",
"6. c #DF8545",
"7. c #E08646",
"8. c #E08747",
"9. c #F5B64C",
"0. c #EAA55D",
"q. c #E8A769",
"w. c #EAAD6F",
"e. c #EAAE6F",
"r. c #F5BF65",
"t. c #EAAE70",
"y. c #EAAF70",
"u. c #EAAF71",
"i. c #FFD053",
"p. c #FFD96C",
"a. c #F5C87D",
"s. c #FFE285",
"d. c #FFEB9D",
"f. c None",
/* pixels */
"f.f.f.f.f.f.f.f.f.f.f.f.f.f.f.q.f.f.f.f.f.f.f.f.f.f.f.f.f.f.f.f.",
"f.f.f.f.f.f.f.f.f.f.f.f.f.f.~ I f.f.f.f.f.f.f.f.f.f.f.f.f.f.f.f.",
"f.f.f.f.f.f.f.f.f.f.f.f.f.3.U Y 5.f.f.f.f.f.f.f.f.f.f.f.f.f.f.f.",
"f.f.f.f.f.f.f.f.f.f.f.f.4.R E W E f.f.f.f.f.f.f.f.f.f.f.f.f.f.f.",
"f.f.f.f.f.f.f.w.f.f.f.6.E Q ! ^ ! 8.f.f.f.f.f.f.f.f.f.f.f.f.f.f.",
"f.f.f.f.f.f.f.E y.f.f.Q ! ! =.=.! ! 8.f.f.f.f.f.f.f.f.f.f.f.f.f.",
"f.f.f.f.f.f.7.! 8.f.8.! ! =.2.2.=.! ! f.f.f.8.y.f.f.f.f.f.f.f.f.",
"f.f.f.f.f.t.! ! ! f.! ! =.2.2.2.2.^ ! 8.f.8.! Q f.f.f.f.f.f.f.f.",
"f.f.f.f.f.W ! ! ! u.! ^ 2.i.d.2.2.=.! ! 8.! ! ! y.f.f.f.f.f.f.f.",
"f.f.f.f.7.! %.%.! ! ! %.2.s.d.s.2.2.! ! ! ! ! ! Q f.f.f.f.f.f.f.",
"f.f.f.t.! ! 2.2.! ! ! ^ i.d.d.d.s.2.! ! ! ! =.! ! 7.f.f.f.f.f.f.",
"f.f.f.E ! =.2.2.=.! ! ! r.d.d.d.d.9.! ! ! =.2.=.! ! t.f.f.f.f.f.",
"f.f.e.Q %.2.2.2.2.%.! ! ! 0.0.0.0.! ! ! %.2.2.2.%.! E f.f.f.f.f.",
"f.f.t.! =.2.s.s.2.2.! ! ! ! ! ! ! ! ! ! %.i.i.2.2.! Q ) 7 f.f.f.",
"f.f.t.! 2.p.d.d.s.2.%.! P ` ` ` ` P ! ! ! d.s.2.2.%.! G l < f.f.",
"f.f.t.! 2.p.d.d.d.p.%.! ` x x x 5 H ! ! ! a.d.s.2.%.! G g > f.f.",
"f.f.e.Q %.d.d.d.a.&.! ! H x x 5 A ! ^ ^ ! &.d.d.p.%.! G g ; f.f.",
"f.f.f.E ! 0.d.a.! ! ! ! ! n 5 A ! ! =.=.! ! a.d.a.! W D = # f.f.",
"f.f.f.t.! ! ! ! ! ! ^ ! ! H x P ! ^ 2.2.^ ! ! ! ! ! E S & e   f.",
"f.f.f.f.7.! ! ! ! ^ =.! ! ! ( ! ^ 2.2.2.2.^ ! ! ! L c = r 0 9   ",
"f.f.f.f.8 6 ! ! ^ 2.2.^ ! ! ! ! %.2.i.i.2.=.! ! b 2 h t 0 9 9   ",
"f.f.f.4 3 b ! ^ 2.2.2.2.^ ! ! ! 2.i.d.d.i.2.^ ! _ z a q 9 9 9   ",
"f.f.f.= O.$.! %.2.i.p.i.=.! ! ! 2.p.d.d.d.i.%.! K k p 9 9 9 9   ",
"f.f.  | o.$.! 2.i.d.d.d.i.^ ! ! =.s.d.d.d.p.%.! J j i 9 9 9   f.",
"f.f.  { ,.*.Q =.p.d.d.d.p.%.! ! ^ a.d.d.d.d.^ ! J g u 9   f.f.f.",
"f.f.  ] >.*.E ^ p.d.d.d.p.^ ! ! ! &.0.0.0.&.! Q N d y   f.f.f.f.",
"f.f.  . } +.T W &.0.0.0.&.Q Q / Q ! ! ! ! Q W N k s @ f.f.f.f.f.",
"f.f.9   X $ m B V Z $.$.C F v 1 @.#.$.$.$.V M h f - f.f.f.f.f.f.",
"f.f.  ' ' o u * ..X.1.X.; - =  ...<.<.o.X.; : ; , f.f.f.f.f.f.f.",
"f.  ' ' '   w O } | :.:.} + X X [ ;.:.| | % $ f.f.f.f.f.f.f.f.f.",
"f.  ' -.'   9       ' '     9       '     f.f.f.f.f.f.f.f.f.f.f.",
"f.        9 9 9           9   9 9       f.f.f.f.f.f.f.f.f.f.f.f."
};
