/* XPM */
static char *result[] = {
/* columns rows colors chars-per-pixel */
"32 32 156 2 ",
"   c black",
".  c #070706",
"X  c #090907",
"o  c #0D0D0A",
"O  c #0E0E0B",
"+  c #11110D",
"@  c #13130F",
"#  c #191913",
"$  c #1A1A14",
"%  c #1B1B15",
"&  c #1C1C16",
"*  c #1D1D16",
"=  c #202019",
"-  c #212119",
";  c #22221A",
":  c #24241C",
">  c #25251C",
",  c #25251D",
"<  c #26261D",
"1  c #27271E",
"2  c #28281F",
"3  c #29291F",
"4  c #2A2A20",
"5  c #2D2D23",
"6  c #313125",
"7  c #313126",
"8  c #353529",
"9  c #37372A",
"0  c #39392C",
"q  c #3B3B2D",
"w  c #3C3C2E",
"e  c #3D3D2F",
"r  c #404000",
"t  c #424203",
"y  c #434303",
"u  c #474707",
"i  c #4A4A0A",
"p  c #505010",
"a  c #515112",
"s  c #525213",
"d  c #545415",
"f  c #575717",
"g  c #575718",
"h  c #585819",
"j  c #5A5A1B",
"k  c #5B5B1C",
"l  c #5E5E1F",
"z  c #5F5F20",
"x  c #5E543C",
"c  c #61563E",
"v  c #606020",
"b  c #606021",
"n  c #626223",
"m  c #646425",
"M  c #666627",
"N  c #6C6C2D",
"B  c #665B42",
"V  c #685C42",
"C  c #685D43",
"Z  c #867C3D",
"A  c #877C3D",
"S  c #CE4300",
"D  c #D1500D",
"F  c #D25412",
"G  c #D45B19",
"H  c #D55E1C",
"J  c #D66120",
"K  c #D76524",
"L  c #D76725",
"P  c #D86928",
"I  c #D86A29",
"U  c #D86B2A",
"Y  c #D86C2B",
"T  c #D96C2B",
"R  c #D96D2B",
"E  c #D96D2C",
"W  c #D96E2D",
"Q  c #D96F2D",
"!  c #C17E3F",
"~  c #886844",
"^  c #8D6C47",
"/  c #8F6F49",
"(  c #8A7F40",
")  c #91704A",
"_  c #B47440",
"`  c #B77643",
"'  c #808000",
"]  c #86860A",
"[  c #8B8B12",
"{  c #8E8E16",
"}  c #8F8F18",
"|  c #91911A",
" . c #93931D",
".. c #93931E",
"X. c #94941F",
"o. c #949420",
"O. c #959520",
"+. c #969622",
"@. c #979724",
"#. c #989826",
"$. c #AEA33E",
"%. c #E28432",
"&. c #E38634",
"*. c #E38734",
"=. c #EC9B38",
"-. c #EC9D3A",
";. c #EC9E3A",
":. c #C0C000",
">. c #C9C91E",
",. c #CACA1F",
"<. c #CACA20",
"1. c #D5CA3E",
"2. c #8C8042",
"3. c #8D8143",
"4. c #A68446",
"5. c #A68546",
"6. c #A68547",
"7. c #A78647",
"8. c #A88748",
"9. c #A88749",
"0. c #AA894A",
"q. c #A78054",
"w. c #C38343",
"e. c #CA8048",
"r. c #CC844A",
"t. c #DF8342",
"y. c #D08F43",
"u. c #C09F47",
"i. c #E38F4A",
"p. c #E18D4D",
"a. c #E18D4E",
"s. c #E28F4F",
"d. c #E39252",
"f. c #E39253",
"g. c #E39353",
"h. c #C1A048",
"j. c #C1A049",
"k. c #DAB947",
"l. c #F6B541",
"z. c #ECA651",
"x. c #ECAE67",
"c. c #EAAE70",
"v. c #EBB273",
"b. c #EBB476",
"n. c #ECB577",
"m. c #ECB677",
"M. c #ECB678",
"N. c #ECB779",
"B. c #FFCC47",
"V. c #FFD55E",
"C. c #F6C66E",
"Z. c #FFDD74",
"A. c #F6CE84",
"S. c #FFE58B",
"D. c #FFEDA1",
"F. c None",
/* pixels */
"F.F.F.F.F.F.F.F.F.F.F.F.F.F.S S F.F.F.F.F.F.F.F.F.F.F.F.F.F.F.F.",
"F.F.F.F.F.F.F.F.F.F.F.F.F.F.D F F.F.F.F.F.F.F.F.F.F.F.F.F.F.F.F.",
"F.F.F.F.F.F.F.F.F.F.F.F.F.t.G H c.F.F.F.F.F.F.F.F.F.F.F.F.F.F.F.",
"F.F.F.F.F.F.F.F.F.F.F.F.F.J K L a.F.F.F.F.F.F.F.F.F.F.F.F.F.F.F.",
"F.F.F.F.F.F.F.F.F.F.F.F.p.P =.Y U F.F.F.F.F.F.F.F.F.F.F.F.F.F.F.",
"F.F.F.F.F.F.F.F.F.F.F.s.U %.B.&.W d.F.F.F.F.F.F.F.F.F.F.F.F.F.F.",
"F.F.F.F.F.F.F.F.F.F.F.E W l.B.l.Q Q f.F.F.F.F.F.F.F.F.F.F.F.F.F.",
"F.F.F.F.F.F.F.F.F.F.g.Q l.B.B.B.l.Q Q F.F.F.f.m.F.F.F.F.F.F.F.F.",
"F.F.F.F.F.F.F.F.F.F.Q Q B.B.Z.B.B.*.Q g.F.g.Q R F.F.F.F.F.F.F.F.",
"F.F.F.F.F.F.F.g.Q N.Q ;.B.S.D.S.B.l.Q Q r.Q Q W m.F.F.F.F.F.F.F.",
"F.F.F.F.F.g.Q Q Q Q Q ;.B.D.D.D.S.B.Q Q Q Q Q Q R F.F.F.F.F.F.F.",
"F.F.F.F.d.Q Q Q Q Q Q *.V.D.D.D.D.B.Q Q Q Q l.Q W e.F.F.F.F.F.F.",
"F.F.F.M.Q Q Q ;.Q Q Q Q z.D.D.D.D.C.Q Q Q l.B.l.Q E q.F.F.F.F.F.",
"F.F.F.d.Q Q l.B.Q Q Q Q Q x.x.x.x.Q Q Q l.B.B.B.;.Q U q w F.F.F.",
"F.F.F.E Q l.B.B.l.Q Q Q Q Q Q Q Q Q Q *.l.V.V.B.B.Q R 5.z 1 F.F.",
"F.F.n.E ;.B.B.B.l.Q Q Q 0.0.0.0.) ` Q Q *.D.S.B.B.;.E 6.l 1 F.F.",
"F.F.n.E l.B.S.D.i.Q Q Q ) N N q N 0.Q Q Q A.D.S.B.;.E 6.l 4 F.F.",
"F.F.n.R B.Z.D.A.Q *.*.Q ` q q N 3.Q Q Q Q i.D.D.Z.;.E 6.2 - F.F.",
"F.F.b.U -.Z.A.Q Q l.l.Q Q C N 3.Q Q Q *.Q Q A.D.A.Q T 4., a   F.",
"F.F.v.P E C.i.Q *.B.B.*.Q Q C w.Q Q *.B.*.Q Q Q Q W I ~ f u r   ",
"F.F.F.p.U W Q *.B.B.B.B.*.Q y.Q Q *.B.B.B.*.Q Q W _ Z j p t r   ",
"F.F.F.e 0 / Q ;.B.V.V.B.l.Q Q Q *.B.B.B.B.l.Q Q 2.M v s y r r   ",
"F.F.X 3 @.j.Q B.V.D.D.V.B.*.Q Q l.B.S.Z.B.B.*.Q 9.m k y r r r   ",
"F.F.  } +.h.W B.Z.D.D.D.V.;.Q Q B.V.D.D.V.B.;.W 8.n h r r r   F.",
"F.F.  { <.k.W l.S.D.D.D.Z.;.Q Q l.S.D.D.D.V.;.W 7.b f r   F.F.F.",
"F.F.  [ >.1.E *.A.D.D.D.D.*.Q Q *.D.D.D.D.S.*.E 7.z g   F.F.F.F.",
"F.F.  O | @._ W i.x.x.x.i.Q Q Q Q i.x.x.x.i.Q R 5.b : F.F.F.F.F.",
"F.F.r . # 2 A U E E W E E E B B E E E W E E T ! ( 6 F.F.F.F.F.F.",
"F.F.  ' ] * l x u.u.k.u.^ c 7 #.$.k.k.u.u.^ V 9 e F.F.F.F.F.F.F.",
"F.  ' ' ' O d ; ..o.<.<.X.< : :  .,.<.O.o.5 8 F.F.F.F.F.F.F.F.F.",
"F.  ' :.'   u + $ & { { % @ i o @ % { = > 6 F.F.F.F.F.F.F.F.F.F.",
"F.        r r r           r   r r       F.F.F.F.F.F.F.F.F.F.F.F."
};
