/* XPM */
static char *result[] = {
/* columns rows colors chars-per-pixel */
"32 32 154 2 ",
"   c black",
".  c #070706",
"X  c #0D0D0A",
"o  c #0E0E0B",
"O  c #11110D",
"+  c #13130F",
"@  c #171711",
"#  c #1B1B15",
"$  c #1D1D16",
"%  c #1E1E17",
"&  c #22221A",
"*  c #23231B",
"=  c #24241C",
"-  c #25251D",
";  c #26261D",
":  c #27271E",
">  c #28281F",
",  c #2A2A20",
"<  c #2F2F24",
"1  c #303025",
"2  c #313126",
"3  c #333327",
"4  c #353529",
"5  c #36362A",
"6  c #39392C",
"7  c #3B3B2D",
"8  c #404000",
"9  c #424203",
"0  c #434303",
"q  c #474707",
"w  c #484808",
"e  c #505010",
"r  c #525213",
"t  c #545414",
"y  c #545415",
"u  c #575717",
"i  c #585819",
"p  c #5B5B1C",
"a  c #5D5D1D",
"s  c #5D5D1E",
"d  c #5E5E1F",
"f  c #5F5F20",
"g  c #424233",
"h  c #4A4A39",
"j  c #5E543C",
"k  c #61563D",
"l  c #606020",
"z  c #606021",
"x  c #616122",
"c  c #626223",
"v  c #646425",
"b  c #6A6A2B",
"n  c #6C6C2D",
"m  c #685D43",
"M  c #83793A",
"N  c #84793B",
"B  c #877C3E",
"V  c #D55E1C",
"C  c #D76524",
"Z  c #D76725",
"A  c #D86928",
"S  c #D86B29",
"D  c #D86B2A",
"F  c #D86C2B",
"G  c #D96C2B",
"H  c #D96D2B",
"J  c #D96D2C",
"K  c #D96E2D",
"L  c #D96F2D",
"P  c #C17F3F",
"I  c #8D6C47",
"U  c #8F6E49",
"Y  c #91704A",
"T  c #98754E",
"R  c #9C784E",
"E  c #B77643",
"W  c #808000",
"Q  c #87870B",
"!  c #89890F",
"~  c #8B8B12",
"^  c #8C8C13",
"/  c #8D8D14",
"(  c #8D8D15",
")  c #8E8E16",
"_  c #92921C",
"`  c #93931D",
"'  c #93931E",
"]  c #94941F",
"[  c #949420",
"{  c #959520",
"}  c #969622",
"|  c #E38634",
" . c #E38734",
".. c #EC9D3A",
"X. c #EC9E3A",
"o. c #C0C000",
"O. c #C6C615",
"+. c #C7C716",
"@. c #C8C81A",
"#. c #C9C91E",
"$. c #CACA1F",
"%. c #CACA20",
"&. c #CBCB24",
"*. c #D5CA3E",
"=. c #8B8041",
"-. c #8D8143",
";. c #A48445",
":. c #A68446",
">. c #A68546",
",. c #A68547",
"<. c #A78647",
"1. c #A9884A",
"2. c #AA894A",
"3. c #C18040",
"4. c #C38343",
"5. c #CE8D40",
"6. c #DF8545",
"7. c #C09F46",
"8. c #C09F47",
"9. c #E08A4A",
"0. c #E28D49",
"q. c #E38F4A",
"w. c #E18D4D",
"e. c #E18D4E",
"r. c #E28F4F",
"t. c #E28F50",
"y. c #E29051",
"u. c #E29151",
"i. c #E39252",
"p. c #E39253",
"a. c #E39353",
"s. c #C0A047",
"d. c #C1A048",
"f. c #F6B541",
"g. c #ECA651",
"h. c #F6BD57",
"j. c #ECAD66",
"k. c #ECAD67",
"l. c #ECAE67",
"z. c #E9AB6C",
"x. c #EBB375",
"c. c #EBB476",
"v. c #ECB476",
"b. c #ECB577",
"n. c #ECB677",
"m. c #ECB779",
"M. c #FFCC47",
"N. c #FFD55E",
"B. c #F6C66E",
"V. c #FFDD74",
"C. c #F6CE84",
"Z. c #FFE58B",
"A. c #FFEDA1",
"S. c None",
/* pixels */
"S.S.S.S.S.S.S.S.S.S.S.S.S.S.S.z.S.S.S.S.S.S.S.S.S.S.S.S.S.S.S.S.",
"S.S.S.S.S.S.S.S.S.S.S.S.S.S.6.V S.S.S.S.S.S.S.S.S.S.S.S.S.S.S.S.",
"S.S.S.S.S.S.S.S.S.S.S.S.S.9.C Z e.S.S.S.S.S.S.S.S.S.S.S.S.S.S.S.",
"S.S.S.S.S.S.S.S.S.S.S.S.w.A D F D S.S.S.S.S.S.S.S.S.S.S.S.S.S.S.",
"S.S.S.S.S.S.S.S.S.S.S.r.D J K | K i.S.S.S.S.x.S.S.S.S.S.S.S.S.S.",
"S.S.S.S.S.S.S.S.S.S.S.J K L f.f.L L p.S.S.S.S v.S.S.S.S.S.S.S.S.",
"S.S.S.S.S.S.S.p.m.S.a.L L f.M.M.f.L L S.S.a.K y.S.S.S.S.S.S.S.S.",
"S.S.S.S.S.S.i.L L S.L L f.M.M.M.M. .L a.m.L L H S.S.S.S.S.S.S.S.",
"S.S.S.S.S.i.L L L m.L  .M.N.A.M.M.f.L L L L L K n.S.S.S.S.S.S.S.",
"S.S.S.S.y.K L L L L L X.M.Z.A.Z.M.M.L L L X.X.L H S.S.S.S.S.S.S.",
"S.S.S.b.J L L f.L L L  .N.A.A.A.Z.M.L L L M.M.L K y.S.S.S.S.S.S.",
"S.S.S.D L L f.M.f.L L L B.A.A.A.A.h.L L f.M.M.f.L J b.S.S.S.S.S.",
"S.S.b.H L f.M.M.M.X.L L L l.l.l.l.L L X.M.M.M.M.X.L D S.S.S.S.S.",
"S.S.b.J X.M.N.N.M.f.L L L L L L L L L f.M.Z.Z.M.M.L H R g S.S.S.",
"S.S.b.J M.M.A.Z.f.L L L 4.2.2.2.2.4.L M.V.A.A.Z.M.X.J ,.c < S.S.",
"S.S.b.J M.V.A.A.q.L L L 2.n n n 7 Y L f.g.C.A.A.V.X.J ,.d , S.S.",
"S.S.b.H ..A.A.C.L  . .L E n n 7 n 2.L L L q.A.A.Z.X.J ,.d : S.S.",
"S.S.c.D L C.C.L L f.f.L L m 7 n -.L L L L L C.A.C.L G :.- # S.S.",
"S.S.S.t.J L L L  .M.M. .L L -.-.L L L  .L L L L L K P x % w   S.",
"S.S.S.S.u.K L  .M.M.M.M. .L E 2.L L  .f.L L L L K 3.1 * e 9 8   ",
"S.S.S.S.h T L X.M.N.N.M.f.L L L L  .M.M. .L L 1.6 3 l r 0 8 8   ",
"S.S.S.5 4 U L M.N.A.A.N.M. .L L  .M.M.M.M. .L L b v p 0 8 8 8   ",
"S.S.S.* } d.K M.V.A.A.A.N.X.L L X.M.N.V.N.f.L K =.c i 8 8 8 8   ",
"S.S.  ) { s.K f.Z.A.A.A.V.X.L L M.N.A.A.A.N. .K <.z u 8 8 8   S.",
"S.S.  ~ #.*.J  .C.A.A.A.A. .L L f.V.A.A.A.V.X.J <.f y 8   S.S.S.",
"S.S.  Q @.&.5.K q.l.l.l.q.L L L  .V.A.A.A.V.| H >.a t   S.S.S.S.",
"S.S.  . ^ ] k D J J K J J J U H J 0.j.k.j.0.G A N p @ S.S.S.S.S.",
"S.S.8   X $ d j I I 8.8.I B 2 k 7.8.8.8.8.I ;.M s = S.S.S.S.S.S.",
"S.S.  W W o y & ' [ %.[ > ; = _ ` $.%.{ [ > > : , S.S.S.S.S.S.S.",
"S.  W W W   q O / ) +.+.( + X X ! O.+.) ) % $ S.S.S.S.S.S.S.S.S.",
"S.  W o.W   8       W W     8       W     S.S.S.S.S.S.S.S.S.S.S.",
"S.        8 8 8           8   8 8       S.S.S.S.S.S.S.S.S.S.S.S."
};
