/* XPM */
static char *result[] = {
/* columns rows colors chars-per-pixel */
"32 32 8 1 ",
"  c black",
". c #323C39",
"X c #444444",
"o c gray38",
"O c #696A6A",
"+ c #7B7B7B",
"@ c #847E87",
"# c None",
/* pixels */
"################################",
"################################",
"##################.....#########",
"##################.OOO.#########",
"#########.#######.OOOO.#########",
"########...######.OO+.##########",
"########.....#oo.O+++oo.########",
"########.....o+++++oo....#######",
"########.OOO.++++oo@  ..o.######",
"########.OOO++   @@@@++ooo######",
"#########.O++@@@@ @@++...#######",
"#######.#..+@@@@@@@++...########",
"######..#.O.+@@@@@@+....########",
"######.O.O.O+@@@@@@+ooooo#######",
"######.O..OO.O@@@@+++OOOOo######",
"#####.OoO..O.O@@OOOOOoooo#######",
"######.o..o.OO..ooooo###########",
"######.oooo.O.OOOOOO.X##########",
"######.ooo...O@+@.OO.XX#########",
"#######...OOO++O.@+O.XXX########",
"######...@@@+O..@+OO.XXXXX######",
"######.O.@@@O.@@@+O.XXXXXX######",
"#####.O.@O.@O.@@+O.XXXXXXX######",
"#####...@..O.@@+O.XXXXXXX#######",
"#######..#...@+OO.XXXXXX########",
"###########.@@.O.#XXXXXX########",
"###########.@+.O.##XXXXXX#######",
"##########.O.O..###XXXXXX#######",
"##########.O.O..###XXXXXX#######",
"###########...######XXXX########",
"################################",
"################################"
};
