/* XPM */
static char *result[] = {
/* columns rows colors chars-per-pixel */
"32 32 10 1 ",
"  c black",
". c #323C39",
"X c #3F3F74",
"o c #444444",
"O c gray38",
"+ c #696A6A",
"@ c #5B6EE1",
"# c #847E87",
"$ c white",
"% c None",
/* pixels */
"%%%%%%%%%%%%%%%%%%%%%%%%%%%%%%%%",
"%%%%%%%%%%%%%%%%%%%%%%%%%%%%%%%%",
"%%%%%%%%%%%%%%%%%%%%%%%%%%%%%%%%",
"%%%%%%%%%%%%..%%%%%%%...%%%%%%%%",
"%%%%%%%%%%%.++.......+.%%%%%%%%%",
"%%%%%%%%%%.+....++++++.%%%%%%%%%",
"%%%%%%%%%%.+...#+###++.%%%%%%%%%",
"%%%%%%%%%%.+#.#######+.%%%%%%%%%",
"%%%%%%%%%%.+#####  ##+ %%%%%%%%%",
"%%%%%.%%%%..#### @$###...%%%%%%%",
"%%%%%..%%.+++### X$####..%%%%%%%",
"%%%%%..%%.+.+##### ##...%%%%%%%%",
"%%%%%......++++#+###...%%%%%%%%%",
"%%%%%.O....+..++#OO#+++O%%%%%%%%",
"%%%%%.OO.....+++.ooOOOOO%%%%%%%%",
"%%%%%.#O.O......O.ooooooo%%%%%%%",
"%%%%%.+##OO..OO++O.ooooooo%%%%%%",
"%%%%%%.+##OOO.O+##O...oooo%%%%%%",
"%%%%%%%.+###OO.+###+OO...%%%%%%%",
"%%%%%%%%.++##O.O+###++OOO.%%%%%%",
"%%%%%%%%%.+##O..O++++++++.%%%%%%",
"%%%%%%%%%%.+###O.OO++..#.%%%%%%%",
"%%%%%%%%%%%.+##O..O.OO..o%%%%%%%",
"%%%%%%%%%%%%..+O#..o..oooo%%%%%%",
"%%%%%%%%%%%%%.+###+.ooooooo%%%%%",
"%%%%%%%%%%%%%.++##++.oooooo%%%%%",
"%%%%%%%%%%%%%%.+#.+.+.ooooo%%%%%",
"%%%%%%%%%%%%%%..+.+.+.ooo%%%%%%%",
"%%%%%%%%%%%%%%%%......%%%%%%%%%%",
"%%%%%%%%%%%%%%%%%%%%%%%%%%%%%%%%",
"%%%%%%%%%%%%%%%%%%%%%%%%%%%%%%%%",
"%%%%%%%%%%%%%%%%%%%%%%%%%%%%%%%%"
};
