/* XPM */
static char *result[] = {
/* columns rows colors chars-per-pixel */
"32 32 10 1 ",
"  c black",
". c #323C39",
"X c #3F3F74",
"o c #444444",
"O c gray38",
"+ c #696A6A",
"@ c #5B6EE1",
"# c #847E87",
"$ c white",
"% c None",
/* pixels */
"%%%%%%%%%%%%%%%%%%%%%%%%%%%%%%%%",
"%%%%%%%%%%%%%%%%%%%%%%%%%%%%%%%%",
"%%%%%%%%%%%%%%%%%%%%%%%%%%%%%%%%",
"%%%%%%%%%%%%%%%%%%%%%%...%%%%%%%",
"%%%%%%%%%%%%%..%%%%%..+.%%%%%%%%",
"%%%%%%%%%%%%.++.....+++.%%%%%%%%",
"%%%%%%%%%%%.+....++++++.%%%%%%%%",
"%%%%%%%%%%%.+...#+####+.%%%%%%%%",
"%%%%%%%%%%%.+#.#######+ %%%%%%%%",
"%%%%%%%%%%%.+#####   ##...%%%%%%",
"%%%%%%%%%%%..#### @$####..%%%%%%",
"%%%%%%%%%%.+++### X$##...%%%%%%%",
"%%%%%%%%%%.+.+##### #...%%%%%%%%",
"%%%%%%..%%..++++#+###o..%%%%%%%%",
"%%%%%%...%..+..++#OO#+++O%%%%%%%",
"%%%%%%.+......+++.ooOOOOO%%%%%%%",
"%%%%%%.#++O......O.+oo.ooo%%%%%%",
"%%%%%%.##++++####+#++.%%%%%%%%%%",
"%%%%%%.#####++.#++.+.o%%%%%%%%%%",
"%%%%%%.++##++.##+.#+.oo%%%%%%%%%",
"%%%%%%%..+++.####+.+.oooo%%%%%%%",
"%%%%%%%%%....####+.+.oooo%%%%%%%",
"%%%%%%%%%%%.++###++..oooo%%%%%%%",
"%%%%%%%%%%%..++.+++..oo%%%%%%%%%",
"%%%%%%%%%%%...++...+.ooo%%%%%%%%",
"%%%%%%%%%%%%....+##+.oooo%%%%%%%",
"%%%%%%%%%%%%%%%.+#.+.ooo%%%%%%%%",
"%%%%%%%%%%%%%%%..+.+.oo%%%%%%%%%",
"%%%%%%%%%%%%%%%%.....%%%%%%%%%%%",
"%%%%%%%%%%%%%%%%%%%%%%%%%%%%%%%%",
"%%%%%%%%%%%%%%%%%%%%%%%%%%%%%%%%",
"%%%%%%%%%%%%%%%%%%%%%%%%%%%%%%%%"
};
