/* XPM */
static char *result[] = {
/* columns rows colors chars-per-pixel */
"32 32 12 1 ",
"  c black",
". c #323C39",
"X c #3F3F74",
"o c #444444",
"O c gray38",
"+ c #696A6A",
"@ c #717373",
"# c #7B7B7B",
"$ c #5B6EE1",
"% c #847E87",
"& c white",
"* c None",
/* pixels */
"****************..**************",
"***************.+..*******.*****",
"**************.++...*****...****",
"*************.+@+...****.+++.***",
"*************.@@@...OO**.++++.**",
"************.@@@@..%%%O.++#+..**",
"************.@%%@@.%%+%%##%#.***",
"************.@%%%@%%%+#%  %O****",
"************.%%%%%  %#+# &$*****",
"***********.####% $&%%#+ &X*****",
"**********.+++### X&%%%...+O****",
"**********.+.####%  %%%%..+O****",
"**********..+++####%%%%%..+O****",
"****oo*****.+..####%%%%%++O*****",
"****oOo****...++++###OOOOO******",
"***oo+Oo*****.++%OOOO%%%.*******",
"***oo%+Oo***....%%%%%%%.********",
"***o+o%++o***O%%%%.%%+.o********",
"**ooo%%%%+oo.+%%%.+%%+.o********",
"**o+o%%%%+..+%%%.+%%%+.oo*******",
"***o+++%%.O+%%%.+%%%++.oo*******",
"****oooo.%%%%%%.+%%%+.oooo******",
"*******.%%%%%%.+%%%+O.oooo******",
"*******.+.%.+%.+%%%+.oooo*******",
"*******...%.+%+.%%%+.oooo*******",
"*********.+O.+O.%%%+.oooo*******",
"**********..*..+%%%%+.oooo******",
"*************.O+%%.%+.oooo******",
"**************.+.+.+.+.ooo******",
"***************..+.+.+.oo*******",
"****************......oo********",
"********************************"
};
