/* XPM */
static char *result[] = {
/* columns rows colors chars-per-pixel */
"32 32 4 1 ",
"  c #FF7B25",
". c #FFB046",
"X c #FFD091",
"o c None",
/* pixels */
"oooooooooooooooooooooooooooooooo",
"oooooooooooooooooooooooooooooooo",
"oooooooooooooooooooooooooooooooo",
"ooooooooooooooo oooooooooooooooo",
"oooooooooooooo ooooooooooooooooo",
"ooooooooooooo .ooooooooooooooooo",
"ooooooooooooo. ooooooooooooooooo",
"oooooooooooooo ooooooooooooooooo",
"ooooooooooooooooo oooooooooooooo",
"ooooooooooooooooo oooooooooooooo",
"ooooooooooooo oooo ooooooooooooo",
"ooooooooooo   oooo. oooooooooooo",
"oooooooooooo.      . ooooooooooo",
"oooooooooooo .    .. ooooooooooo",
"ooooooooooo           oooooooooo",
"ooooooooooo  ......    ooooooooo",
"oooooooooo  ........   ooooooooo",
"oooooooooo ..XXXXXX..  ooooooooo",
"ooooooooo  .XXXXXXXX.  ooooooooo",
"ooooooooo ..XXXXXXXX.. ooooooooo",
"ooooooooo  ..XXXXXX..  ooooooooo",
"oooooooooo  ........  oooooooooo",
"ooooooooooo          ooooooooooo",
"oooooooooooo        oooooooooooo",
"oooooooooooooo    oooooooooooooo",
"oooooooooooooooooooooooooooooooo",
"oooooooooooooooooooooooooooooooo",
"oooooooooooooooooooooooooooooooo",
"oooooooooooooooooooooooooooooooo",
"oooooooooooooooooooooooooooooooo",
"oooooooooooooooooooooooooooooooo",
"oooooooooooooooooooooooooooooooo"
};
