/* XPM */
static char *result[] = {
/* columns rows colors chars-per-pixel */
"32 32 4 1 ",
"  c #FF7B25",
". c #FFB046",
"X c #FFD091",
"o c None",
/* pixels */
"oooooooooooooooooooooooooooooooo",
"ooooooooooooooo oooooooooooooooo",
"oooooooooooooo ooooooooooooooooo",
"ooooooooooooo .ooooooooooooooooo",
"ooooooooooooo. ooooooooooooooooo",
"oooooooooooooo ooooooooooooooooo",
"ooooooooooooooooo oooooooooooooo",
"ooooooooooooooooo oooooooooooooo",
"ooooooooooooo oooo ooooooooooooo",
"oooooooooooo ooooo. oooooooooooo",
"ooooooooooo . ooo  . ooooooooooo",
"oooooooooooo . oo .. ooooooooooo",
"ooooooooooooo         oooooooooo",
"oooooooooooo           ooooooooo",
"ooooooooooo            ooooooooo",
"ooooooooooo    ..      ooooooooo",
"oooooooooo    ....     ooooooooo",
"oooooooooo   ..XX..   oooooooooo",
"ooooooooo    .XXXX.    ooooooooo",
"ooooooooo   ..XXXX..   ooooooooo",
"ooooooooo    ..XX..    ooooooooo",
"oooooooooo    ....    oooooooooo",
"ooooooooooo          ooooooooooo",
"oooooooooooo        oooooooooooo",
"oooooooooooooo    oooooooooooooo",
"oooooooooooooooooooooooooooooooo",
"oooooooooooooooooooooooooooooooo",
"oooooooooooooooooooooooooooooooo",
"oooooooooooooooooooooooooooooooo",
"oooooooooooooooooooooooooooooooo",
"oooooooooooooooooooooooooooooooo",
"oooooooooooooooooooooooooooooooo"
};
