/* XPM */
static char *result[] = {
/* columns rows colors chars-per-pixel */
"32 32 40 1 ",
"  c #1A1A1B",
". c #997000",
"X c #9A7000",
"o c #9B7000",
"O c #9A7100",
"+ c #9B7100",
"@ c #9C7100",
"# c #9C7200",
"$ c #9D7200",
"% c #9E7200",
"& c #9F7200",
"* c #A17500",
"= c #A67900",
"- c #A77900",
"; c #A87900",
": c #A87A00",
"> c #AA7A00",
", c #AA7B00",
"< c #AB7B00",
"1 c #AC7C00",
"2 c #B17F00",
"3 c #B27F00",
"4 c #B28000",
"5 c #B38100",
"6 c #B48100",
"7 c #B58200",
"8 c #B68200",
"9 c #B68300",
"0 c #B78300",
"q c #B88400",
"w c #B98400",
"e c #B98500",
"r c #BA8500",
"t c #BB8600",
"y c #D29E11",
"u c #D39F12",
"i c #D7AA2D",
"p c #D7AA2E",
"a c #FFF0C6",
"s c None",
/* pixels */
"ssssssssssssssssssssssssssssssss",
"ssssssssssssssssssssssssssssssss",
"ssssssssssssssssssssssssssssssss",
"ssssssssssssssiaaassssssssssssss",
"ssssssssssssiiiaaassssssssssssss",
"sssssssssssiiiiiaa.....sssssssss",
"sssssssssssiii..........ssssssss",
"sssssssssssu.............sssssss",
"ssssssssssuu.............sssssss",
"ssssss   uu...............ssssss",
"ssssss   uu...............ssssss",
"ssssss   uu...............ssssss",
"ssssss   uu...............ssssss",
"ssssssssuuu.Oq...X.X...X..ssssss",
"ssssssssuuyt*r+r+q@qXt+qX.ssssss",
"ssssssssuuut<0-q<r=e%t;r$7ssssss",
"ssssssssuuut62448773r5972,ssssss",
"ssssssssuuutw=q-r:r1r&t:e+ssssss",
"ssssssssuuu+r+rOq#w><.t#wXssssss",
"ssssss   uu.+.o.X.O##...O.ssssss",
"ssssss   uu...............ssssss",
"ssssss   uu...............ssssss",
"ssssss   uu...............ssssss",
"ssssssssssuu.............sssssss",
"sssssssssssu.............sssssss",
"sssssssssssiii..........ssssssss",
"sssssssssssiiiiiaa.....sssssssss",
"ssssssssssssiiiaaassssssssssssss",
"sssssssssssssspaaassssssssssssss",
"ssssssssssssssssssssssssssssssss",
"ssssssssssssssssssssssssssssssss",
"ssssssssssssssssssssssssssssssss"
};
